<svg width="24" height="24" fill="none" viewBox="0 0 64 64" xmlns="http://www.w3.org/2000/svg">
  <circle cx="26.84" cy="4.35" r="1.32" fill="#1877F2"></circle>
  <path fill="#1877F2" d="M36.98,5.51c0-0.24-0.12-0.49-0.3-0.62c-0.12-0.1-0.23-0.13-0.36-0.13h-4.21c-0.51,0-0.94-0.37-1.02-0.88
		c-0.21-1.39-0.98-2.58-2.12-3.28C28.33,0.21,27.59,0,26.84,0c-2.12,0-3.9,1.63-4.24,3.88c-0.07,0.51-0.51,0.88-1.02,0.88h-4.21
		c-0.36,0-0.66,0.33-0.66,0.74v5.73h20.27V5.51z M26.84,7.13c-1.53,0-2.78-1.24-2.78-2.78c0-1.53,1.25-2.78,2.78-2.78
		c1.53,0,2.78,1.25,2.78,2.78C29.62,5.89,28.37,7.13,26.84,7.13z"></path>
  <path opacity="0.48" fill="#1877F2" d="M14.86,11.19H6.83c-0.26,0-0.47,0.21-0.47,0.48V59c0,0.26,0.21,0.47,0.47,0.47h40.01
		c0.27,0,0.48-0.21,0.48-0.47v-4.33l-0.17-0.04c-6.12-1.27-10.56-6.73-10.56-12.98c0-6.25,4.44-11.71,10.56-12.97l0.17-0.03V11.67
		c0-0.27-0.21-0.48-0.48-0.48h-8.03v1.07c0,0.46-0.36,0.82-0.82,0.82H15.68c-0.45,0-0.82-0.37-0.82-0.82V11.19z M42.8,18.37
		c0,0.46-0.36,0.82-0.82,0.82H11.7c-0.46,0-0.82-0.36-0.82-0.82c0-0.45,0.37-0.82,0.82-0.82h30.28
		C42.43,17.55,42.8,17.92,42.8,18.37z M37.41,54.24H11.7c-0.46,0-0.82-0.36-0.82-0.82c0-0.45,0.37-0.82,0.82-0.82h25.71
		c0.44,0,0.82,0.37,0.82,0.82C38.23,53.87,37.86,54.24,37.41,54.24z M11.7,43.84h22.56c0.45,0,0.82,0.37,0.82,0.82
		c0,0.46-0.36,0.82-0.82,0.82H11.7c-0.46,0-0.82-0.36-0.82-0.82C10.89,44.21,11.25,43.84,11.7,43.84z M34.26,36.71H11.7
		c-0.46,0-0.82-0.36-0.82-0.82c0-0.45,0.37-0.82,0.82-0.82h22.56c0.45,0,0.82,0.37,0.82,0.82C35.08,36.35,34.72,36.71,34.26,36.71z
		 M10.89,27.13c0-0.45,0.37-0.82,0.82-0.82h30.28c0.45,0,0.82,0.37,0.82,0.82c0,0.46-0.36,0.82-0.82,0.82H11.7
		C11.24,27.95,10.89,27.59,10.89,27.13z"></path>
  <path opacity="0.48" fill="#1877F2" d="M48.95 11.67v16.77l.44-.02c.15-.01.3-.02.45-.02.28 0 .55.02.83.04l.26.02V7.03c0-.2-.16-.36-.36-.36H38.81v2.89h8.03C48.01 9.56 48.95 10.51 48.95 11.67zM50.68 54.87c-.28.02-.55.04-.83.04-.15 0-.3-.01-.45-.02l-.44-.02V59c0 1.16-.95 2.1-2.11 2.1H6.83c-1.16 0-2.1-.94-2.1-2.1V11.67c0-1.16.94-2.11 2.1-2.11h8.03V6.67H3.11c-.2 0-.36.16-.36.36v56.6c0 .2.16.36.36.36h47.47c.2 0 .36-.16.36-.36v-8.56l-.03-.23L50.68 54.87z"></path>
  <path fill="#1877F2" d="M49.85,30.25c-6.29,0-11.41,5.11-11.41,11.41s5.11,11.42,11.41,11.42c6.29,0,11.41-5.12,11.41-11.42
		S56.14,30.25,49.85,30.25z M56.69,37.84l-8.48,8.48c-0.2,0.2-0.47,0.3-0.73,0.3c-0.25,0-0.52-0.1-0.72-0.3l-3.77-3.7
		c-0.41-0.4-0.41-1.05-0.02-1.46c0.4-0.4,1.05-0.4,1.46-0.01l3.05,3l7.76-7.76c0.4-0.4,1.05-0.4,1.45,0
		C57.09,36.78,57.09,37.43,56.69,37.84z"></path>
</svg>
