<svg width="24" height="24" viewBox="0 0 512 512" xmlns="http://www.w3.org/2000/svg">
  <rect width="55" height="75" x="175" y="205" rx="2.5" ry="2.5" fill="#1877F2"></rect>
  <circle cx="327.5" cy="242.5" r="22.5" fill="#1877F2"></circle>
  <rect width="65" height="35" x="392" y="325" rx="2.5" ry="2.5" fill="#1877F2"></rect>
  <rect width="65" height="35" x="392" y="125" rx="2.5" ry="2.5" fill="#1877F2"></rect>
  <path d="M68.5 474.5v20A17.52 17.52 0 0 0 86 512h22.5v-55H86a17.52 17.52 0 0 0-17.5 17.5zm352.8-15.3a7.47 7.47 0 0 0-5.3-2.2H123.5v55H416a7.47 7.47 0 0 0 5.3-2.2l20-20a7.49 7.49 0 0 0 0-10.6zM115 350c.12-.82 0-332.5 0-332.5A17.52 17.52 0 0 0 97.5 0h-60A37.54 37.54 0 0 0 0 37.5v350A37.5 37.5 0 0 1 37.5 350z" fill="#1877F2"></path>
  <path opacity="0.48" d="M494.5 60H130v305H45.67a30 30 0 0 0 0 60H494.5a17.52 17.52 0 0 0 17.5-17.5v-330A17.52 17.52 0 0 0 494.5 60ZM472 157.5a17.52 17.52 0 0 1-17.5 17.5h-60a17.52 17.52 0 0 1-17.5-17.5V150h-29.5a12.52 12.52 0 0 0-12.5 12.5v43.25a37.51 37.51 0 0 1 0 73.5v43.25a12.52 12.52 0 0 0 12.5 12.5H377v-7.5a17.52 17.52 0 0 1 17.5-17.5h60a17.52 17.52 0 0 1 17.5 17.5v30a17.52 17.52 0 0 1-17.5 17.5h-60a17.52 17.52 0 0 1-17.5-17.5V350h-29.5a27.54 27.54 0 0 1-27.5-27.5v-43.25A37.63 37.63 0 0 1 290.75 250H245v27.5a17.52 17.52 0 0 1-17.5 17.5h-50a17.52 17.52 0 0 1-17.5-17.5v-70a17.52 17.52 0 0 1 17.5-17.5h50a17.52 17.52 0 0 1 17.5 17.5V235h45.75A37.63 37.63 0 0 1 320 205.75V162.5a27.54 27.54 0 0 1 27.5-27.5H377v-7.5a17.52 17.52 0 0 1 17.5-17.5h60a17.52 17.52 0 0 1 17.5 17.5Z" fill="#1877F2"></path>
</svg>
