<svg width="24" height="24" fill="none" viewBox="0 0 100 100" xmlns="http://www.w3.org/2000/svg">
  <path opacity="0.48" d="M8.7 65h23.9c0-.5 0-1.1.1-1.6.3-1.4 1-2.7 2.2-3.8.2-.2.3-.4.3-.7 0-.2-.1-.4-.2-.6l-.2-.2-.7-.7c-.5-.6-.9-1.3-1.1-2H21.2c-.5-4.8-4.3-8.6-9.1-9.1V21c4.8-.5 8.6-4.3 9.1-9.1h58.6c.5 4.8 4.3 8.6 9.1 9.1v25.4c-4.8.5-8.6 4.3-9.1 9.1h-5.1c-.3.7-.7 1.4-1.2 2-.2.3-.5.5-.7.8l-.1.1c-.1.2-.2.4-.2.6 0 .3.1.5.3.7 1.1 1.1 1.9 2.3 2.2 3.8.1.5.1 1 .1 1.4v.2h17.2c3.4 0 6.2-2.8 6.2-6.2V8.5c0-3.4-2.8-6.2-6.2-6.2H8.7c-3.4 0-6.2 2.8-6.2 6.2v50.3c0 3.4 2.8 6.2 6.2 6.2z" fill="#1877F2"></path>
  <path d="M53.9 51.7c-4 0-7.2 3.2-7.2 7.2s3.2 7.2 7.2 7.2 7.2-3.2 7.2-7.2c0-3.9-3.3-7.2-7.2-7.2z" fill="#1877F2"></path>
  <path d="M64.7 73.3V73c0-.8.2-1.6.8-2.2.6-.6 1.3-.9 2.2-.9h.2c1.4.1 2.7-.4 3.7-1.3 1-1 1.6-2.3 1.6-3.7 0-.3 0-.6-.1-1-.2-1-.8-1.9-1.6-2.7-.6-.5-1-1.4-1-2.2 0-.7.2-1.3.7-1.9l.3-.3.6-.6c.1-.1.1-.2.2-.3.1-.1.2-.2.2-.4v-.2c.1-.1.1-.2.1-.3 0-.1.1-.2.1-.3 0-.1.1-.1.1-.2s0-.2.1-.2V54c0-.1 0-.3.1-.4v-1c0-.2 0-.3-.1-.5v-.2c-.1-.2-.1-.4-.2-.7-.7-1.9-2.6-3.2-4.6-3.2h-.3c-.8 0-1.6-.2-2.2-.8-.6-.6-.9-1.3-.9-2.2v-.2c.1-2.1-1.1-4-3-4.8-2-.8-4.2-.3-5.6 1.3-.6.6-1.4 1-2.2 1-.8 0-1.6-.4-2.2-1-1.4-1.6-3.5-2.1-5.5-1.3-2 .7-3.2 2.6-3.2 4.6v.3c.1.8-.2 1.6-.8 2.2-.6.6-1.3.9-2.2.9h-.2c-1.4-.1-2.7.4-3.7 1.3-1 1-1.6 2.3-1.6 3.7 0 .3 0 .7.1 1v.1c0 .1 0 .2.1.3 0 .1 0 .2.1.2 0 .1.1.2.1.3.3.6.7 1.2 1.2 1.7l.3.3c.4.5.7 1.2.7 1.9 0 .9-.4 1.7-1 2.2-.8.7-1.3 1.7-1.5 2.7-.3 1.5.1 3 1 4.2 1 1.2 2.3 1.8 3.8 1.8h.3c.8-.1 1.6.2 2.2.8.6.6.9 1.3.9 2.2v.3c-.1 2.3 1.3 4.3 3.5 5 .5.2 1 .3 1.6.3 1.4 0 2.7-.6 3.7-1.7 1.1-1.2 3.3-1.2 4.4 0 1.3 1.5 3.3 2 5.2 1.4 2.2-.7 3.5-2.6 3.5-4.7zm-10.8-5.1c-5.1 0-9.2-4.1-9.2-9.2s4.1-9.2 9.2-9.2 9.2 4.1 9.2 9.2c0 5-4.2 9.2-9.2 9.2z" fill="#1877F2"></path>
  <path d="M54.6 77.9c-.2-.2-.4-.3-.7-.3s-.6.1-.7.3c-1.3 1.5-3.2 2.3-5.1 2.3-.8 0-1.5-.1-2.2-.4v17.8c0 .4.2.8.6.9.1.1.3.1.4.1.2 0 .5-.1.7-.2l6.5-5.6 6.4 5.6c.3.3.7.3 1.1.2.4-.2.6-.5.6-.9V79.8h-.1c-.7.2-1.4.3-2.1.3-2.2.1-4.1-.7-5.4-2.2zM27.7 20.5h45.7c.6 0 1-.4 1-1s-.4-1-1-1H27.7c-.6 0-1 .4-1 1s.4 1 1 1zm0 9.8h45.7c.6 0 1-.4 1-1s-.4-1-1-1H27.7c-.6 0-1 .4-1 1s.4 1 1 1z" fill="#1877F2"></path>
</svg>
